<svg id="Layer_1" data-name="Layer 1" xmlns="http://www.w3.org/2000/svg" viewBox="0 0 62.51 20.16" width="150" heigth="150"><defs><style>.cls-1{fill:#0c241f;}.cls-2{fill:#ddd3b9;}</style></defs><path class="cls-1" d="M36.83,2.34a2.13,2.13,0,0,0-.78.65,4.5,4.5,0,0,0-.36.51c-.12.2-.25.44-.4.74Q34.72,5.33,34,6.82c-.47,1-.91,2-1.32,3,0,.39,0,.83,0,1.32s.05.95.08,1.41.08.87.14,1.23a3.75,3.75,0,0,0,.18.79,10.66,10.66,0,0,0-4.06,0,3,3,0,0,0,.26-.81,8.86,8.86,0,0,0,.15-1.13c0-.41.06-.84.08-1.29s0-.9,0-1.34a14.12,14.12,0,0,0-.8-1.82c-.35-.67-.7-1.31-1.08-1.93S27,5.07,26.64,4.58,26,4,25.82,4.07a.83.83,0,0,0-.51.73,4.57,4.57,0,0,0,0,1.43,5.43,5.43,0,0,0,.44,1.44A5.72,5.72,0,0,0,26.55,9a4.8,4.8,0,0,0,1.08.94,3.28,3.28,0,0,0,1.32.44,3.15,3.15,0,0,1-1.38.91,4.3,4.3,0,0,1-1.59.2,4.46,4.46,0,0,1-1.54-.37,3.3,3.3,0,0,1-1.19-.85,4.38,4.38,0,0,1-.82-1.37,4.88,4.88,0,0,1-.35-1.59,4.27,4.27,0,0,1,.23-1.62,3.87,3.87,0,0,1,.88-1.44,4.81,4.81,0,0,1,1.31-.94,7.73,7.73,0,0,1,1.59-.58,12,12,0,0,1,1.71-.27c.59,0,1.15-.06,1.69-.05.07.22.19.53.37,1s.39.91.65,1.46.56,1.15.91,1.81.74,1.33,1.17,2c.39-.84.75-1.65,1.07-2.45a12.29,12.29,0,0,0,.67-2.12,2.06,2.06,0,0,0,0-1A1.89,1.89,0,0,0,34,2.34Z"/><path class="cls-1" d="M51.09,11.93a2,2,0,0,1-.3,1.39,4.07,4.07,0,0,1-1.17,1.17,7.45,7.45,0,0,1-1.74.87,8.25,8.25,0,0,1-2,.43,7.73,7.73,0,0,1-2-.12A4.59,4.59,0,0,1,42,14.89a3.84,3.84,0,0,1-1.22-1.56,5.46,5.46,0,0,1-.4-2.45v0a11.84,11.84,0,0,1-.68,2,2.81,2.81,0,0,1-1.1,1.32,1.57,1.57,0,0,1-.65.24,2,2,0,0,1-.76,0,1.9,1.9,0,0,1-.72-.31,1.53,1.53,0,0,1-.55-.69,3.77,3.77,0,0,1-.33-1.36c0-.54-.07-1.1-.09-1.7s0-1.18-.08-1.79a6.26,6.26,0,0,0-.35-1.7,14.69,14.69,0,0,0,1.8-.34,8.45,8.45,0,0,0,1.51-.55V9.73c0,.38,0,.74,0,1.09a7.5,7.5,0,0,0,.11.92,3,3,0,0,0,.18.63c.08.16.17.24.28.24a.55.55,0,0,0,.39-.21,2.1,2.1,0,0,0,.31-.52,6.1,6.1,0,0,0,.28-.74c.08-.28.16-.58.22-.88,0-.12,0-.23.08-.34s.05-.23.08-.36c0-.6-.09-1.15-.17-1.62a3.87,3.87,0,0,0-.27-1c.29,0,.6-.08.94-.14s.68-.13,1-.21.66-.17,1-.26a7.56,7.56,0,0,0,.76-.28,4.06,4.06,0,0,0-.16.65c-.05.29-.09.62-.13,1s-.07.77-.1,1.21,0,.87,0,1.32a5.92,5.92,0,0,0,.42,2.41,4,4,0,0,0,1,1.45,2.65,2.65,0,0,0,1.3.62,2.34,2.34,0,0,0,1.19,0,1.36,1.36,0,0,0,.67-.44.87.87,0,0,0,.14-.77,2.88,2.88,0,0,0-.66-1.14,10.83,10.83,0,0,0-1.72-1.52,4,4,0,0,1-.85-.83,3,3,0,0,1-.46-.89,2.6,2.6,0,0,1-.1-.91,2.1,2.1,0,0,1,.24-.83,2.19,2.19,0,0,1,.76-.87A3.91,3.91,0,0,1,46.27,6a4,4,0,0,1,1.25-.16A3.89,3.89,0,0,1,48.69,6a2.29,2.29,0,0,1,.89.51,1.17,1.17,0,0,1,.37.85.92.92,0,0,1-.34.79,1.58,1.58,0,0,1-.83.34,1.88,1.88,0,0,1-1-.18,1.41,1.41,0,0,1-.71-.75,1,1,0,0,0,.54-.31.39.39,0,0,0,.07-.37.66.66,0,0,0-.26-.33A.86.86,0,0,0,47,6.37a.78.78,0,0,0-.42.07.76.76,0,0,0-.26.24.63.63,0,0,0-.12.31,1.1,1.1,0,0,0,0,.31,1.1,1.1,0,0,0,.42.62c.23.17.47.34.73.51l.46.3.6.38.65.44c.24.16.46.31.67.47a5.87,5.87,0,0,1,1,.88A2,2,0,0,1,51.09,11.93Z"/><path class="cls-1" d="M51.53,6.05c.28-.06.58-.14.91-.23s.65-.2,1-.32a9.36,9.36,0,0,0,.9-.39A4.47,4.47,0,0,0,55,4.68V6.05h1.49v.57H55V9.39c0,.88,0,1.8,0,2.74a4.25,4.25,0,0,0,.16,1.33c.11.32.28.46.53.42a.57.57,0,0,0,.35-.41,2,2,0,0,0,0-.74,3.76,3.76,0,0,0-.22-.86,2.29,2.29,0,0,0-.46-.77,1.24,1.24,0,0,1,1-.14,1.08,1.08,0,0,1,.59.52,1.88,1.88,0,0,1,.18.91,2.15,2.15,0,0,1-.3,1,2.48,2.48,0,0,1-.83.81,2.7,2.7,0,0,1-1.41.34,2.94,2.94,0,0,1-1.21-.22,2,2,0,0,1-.81-.59,2.44,2.44,0,0,1-.46-.91A4.86,4.86,0,0,1,52,11.63c0-.79,0-1.48,0-2.06S52,8.48,52,8a8.19,8.19,0,0,0-.13-1.14A3.06,3.06,0,0,0,51.53,6.05Z"/><path class="cls-1" d="M57.44,14.37a5.38,5.38,0,0,0,.4-1.48,10.62,10.62,0,0,0,.09-1.58,8.77,8.77,0,0,0-.17-1.42,3.67,3.67,0,0,0-.32-1c.31,0,.63,0,1-.05s.67-.09,1-.16a4.85,4.85,0,0,0,.94-.27,3.44,3.44,0,0,0,.79-.4,5.84,5.84,0,0,0-.29,1.24A13.69,13.69,0,0,0,60.71,11a16.08,16.08,0,0,0,.07,1.84,5.57,5.57,0,0,0,.35,1.53Zm0-7.76a1.15,1.15,0,0,1,.14-.55A1.63,1.63,0,0,1,58,5.62a2,2,0,0,1,.59-.29,2.38,2.38,0,0,1,1.43,0,2.25,2.25,0,0,1,.58.29,1.51,1.51,0,0,1,.4.44,1.15,1.15,0,0,1,.14.55,1.1,1.1,0,0,1-.14.53,1.48,1.48,0,0,1-.4.43,2.25,2.25,0,0,1-.58.29,2.38,2.38,0,0,1-1.43,0A2,2,0,0,1,58,7.57a1.59,1.59,0,0,1-.39-.43A1.1,1.1,0,0,1,57.46,6.61Z"/><path d="M30.69,18.39a.86.86,0,0,1-1,1h-.58V17.44h.58a1,1,0,0,1,.73.23A1,1,0,0,1,30.69,18.39Zm-.15,0a1.72,1.72,0,0,0,0-.34.6.6,0,0,0-.14-.26.63.63,0,0,0-.25-.16,1.53,1.53,0,0,0-.41-.05h-.43v1.65h.43a1.18,1.18,0,0,0,.41-.06.56.56,0,0,0,.25-.17.58.58,0,0,0,.13-.26A1.25,1.25,0,0,0,30.54,18.39Z"/><path d="M34.1,19.37H32.7V17.44h1.35v.14H32.84v.71H34v.14H32.84v.8H34.1Z"/><path d="M36.82,19.4a1.18,1.18,0,0,1-.34,0,.67.67,0,0,1-.24-.12.55.55,0,0,1-.16-.18.92.92,0,0,1-.06-.25h.14a.63.63,0,0,0,.08.22.62.62,0,0,0,.14.14.68.68,0,0,0,.2.07l.23,0a.75.75,0,0,0,.23,0,.37.37,0,0,0,.18-.08.25.25,0,0,0,.11-.12.29.29,0,0,0,0-.16.43.43,0,0,0,0-.17.26.26,0,0,0-.12-.11.53.53,0,0,0-.2-.09l-.33-.08-.27-.08a.86.86,0,0,1-.19-.11.36.36,0,0,1-.14-.32.5.5,0,0,1,0-.21.48.48,0,0,1,.13-.16.68.68,0,0,1,.21-.1.93.93,0,0,1,.54,0,.63.63,0,0,1,.22.09.75.75,0,0,1,.15.16.57.57,0,0,1,.07.22h-.13a.69.69,0,0,0-.07-.15.38.38,0,0,0-.11-.11.45.45,0,0,0-.17-.08.69.69,0,0,0-.22,0,.63.63,0,0,0-.39.1.29.29,0,0,0-.13.26.51.51,0,0,0,0,.13.28.28,0,0,0,.09.1.53.53,0,0,0,.15.08l.24.07.18,0,.18.05.16.06a.45.45,0,0,1,.13.1.38.38,0,0,1,.09.13.41.41,0,0,1,0,.19.59.59,0,0,1-.05.23.61.61,0,0,1-.15.17.66.66,0,0,1-.22.12A.82.82,0,0,1,36.82,19.4Z"/><path d="M39.73,19.37h-.14V17.44h.14Z"/><path d="M42.71,19.4a.92.92,0,0,1-.38-.07,1,1,0,0,1-.29-.2.94.94,0,0,1-.19-.32,1.3,1.3,0,0,1-.07-.41,1.37,1.37,0,0,1,.07-.42,1.08,1.08,0,0,1,.19-.31.84.84,0,0,1,.29-.2.87.87,0,0,1,.37-.07.92.92,0,0,1,.29,0,1,1,0,0,1,.25.11.77.77,0,0,1,.18.18.58.58,0,0,1,.09.23h-.15a.33.33,0,0,0-.07-.16.35.35,0,0,0-.14-.13.53.53,0,0,0-.2-.09.66.66,0,0,0-.25,0,.78.78,0,0,0-.31.06.63.63,0,0,0-.24.16A.72.72,0,0,0,42,18a1,1,0,0,0-.06.37,1,1,0,0,0,.06.36.85.85,0,0,0,.16.28.63.63,0,0,0,.24.16.81.81,0,0,0,.31.06.93.93,0,0,0,.42-.09.91.91,0,0,0,.3-.25v-.35h-.53v-.14h.67v.94h-.08l-.06-.26-.15.14-.17.09-.19.05Z"/><path d="M47.09,19.37H46.9L45.72,17.6v1.77h-.14V17.44h.2L47,19.2V17.44h.14Z"/><path d="M50.56,19.37h-1.4V17.44h1.35v.14h-1.2v.71h1.13v.14H49.31v.8h1.25Z"/><path d="M54.13,19.37H54l-.19-.52-.06-.14a1,1,0,0,0-.08-.11l-.11-.08-.14,0h-.67v.87h-.14V17.44h.86a.93.93,0,0,1,.24,0,.44.44,0,0,1,.2.08.4.4,0,0,1,.14.15.5.5,0,0,1,.06.26.57.57,0,0,1,0,.18.51.51,0,0,1-.07.15.43.43,0,0,1-.12.11.48.48,0,0,1-.18.07.36.36,0,0,1,.09.08.21.21,0,0,1,.06.08.31.31,0,0,1,.05.1.61.61,0,0,0,0,.12Zm-1.41-1h.67a.88.88,0,0,0,.24,0,.35.35,0,0,0,.27-.19.54.54,0,0,0,0-.19.32.32,0,0,0-.13-.29.73.73,0,0,0-.37-.08h-.71Z"/><path class="cls-1" d="M20,10.6c0,1-1.13,1.85-1.43,2.78s.11,2.29-.47,3.09-2,.82-2.8,1.4S14,19.78,13.07,20.09s-2.07-.5-3.09-.5-2.16.8-3.08.5-1.41-1.64-2.2-2.22-2.21-.6-2.79-1.4-.17-2.14-.48-3.09S0,11.62,0,10.6,1.13,8.74,1.43,7.82s-.1-2.29.48-3.09,2-.82,2.79-1.4S5.94,1.42,6.9,1.1,9,1.61,10,1.61,12.14.8,13.07,1.1s1.4,1.65,2.19,2.23,2.21.6,2.8,1.4.16,2.13.47,3.09S20,9.58,20,10.6Z"/><path class="cls-2" d="M14.14,7.07a1.54,1.54,0,0,0-.49.4,3,3,0,0,0-.21.32,4.3,4.3,0,0,0-.25.45c-.24.46-.5,1-.79,1.61s-.55,1.23-.81,1.85c0,.24,0,.51,0,.81s0,.6.05.88a7.24,7.24,0,0,0,.09.76,2.13,2.13,0,0,0,.11.49,6.62,6.62,0,0,0-2.51,0,2.69,2.69,0,0,0,.16-.5,6.32,6.32,0,0,0,.09-.7c0-.25,0-.52.05-.8s0-.55,0-.83a9.22,9.22,0,0,0-.49-1.13c-.22-.41-.44-.81-.67-1.19s-.45-.73-.67-1-.39-.36-.52-.32A.51.51,0,0,0,7,8.6a2.88,2.88,0,0,0,0,.88,3.28,3.28,0,0,0,.28.89,3.18,3.18,0,0,0,.49.79,2.64,2.64,0,0,0,.67.58,1.94,1.94,0,0,0,.81.27,1.94,1.94,0,0,1-.85.57,2.75,2.75,0,0,1-1,.12,2.6,2.6,0,0,1-1-.23A2,2,0,0,1,5.74,12a2.81,2.81,0,0,1-.52-.85,3.37,3.37,0,0,1-.21-1,2.64,2.64,0,0,1,.14-1,2.4,2.4,0,0,1,.55-.89,3,3,0,0,1,.81-.58,4.79,4.79,0,0,1,1-.36,7.55,7.55,0,0,1,1.06-.17l1,0c0,.14.12.33.22.59s.25.57.41.91.35.71.56,1.12.46.82.72,1.26c.25-.52.47-1,.67-1.52a7.09,7.09,0,0,0,.41-1.31,1.25,1.25,0,0,0,0-.61,1.07,1.07,0,0,0-.23-.45Z"/></svg>