<svg id="Layer_1" data-name="Layer 1" xmlns="http://www.w3.org/2000/svg" viewBox="0 0 45.72 18.74" width="150" heigth="150"><defs><style>.cls-1{fill:#0c241f;}</style></defs><path class="cls-1" d="M17.07,0a2.57,2.57,0,0,0-.49.31,2.45,2.45,0,0,0-.42.43,4.18,4.18,0,0,0-.41.6c-.14.23-.29.51-.46.85-.45.85-.94,1.84-1.47,3s-1,2.3-1.52,3.46c0,.46,0,1,0,1.53s.06,1.1.1,1.63.09,1,.16,1.43a4.59,4.59,0,0,0,.21.91,12.33,12.33,0,0,0-4.69,0,3.49,3.49,0,0,0,.29-.94,11.34,11.34,0,0,0,.18-1.3q.06-.72.09-1.5c0-.52,0-1,0-1.54a15.21,15.21,0,0,0-.93-2.11C7.39,6,7,5.23,6.55,4.52S5.7,3.16,5.29,2.59s-.72-.68-1-.59-.5.3-.59.84a5.44,5.44,0,0,0,0,1.66,6.48,6.48,0,0,0,.51,1.66,6.36,6.36,0,0,0,.92,1.48A5.15,5.15,0,0,0,6.43,8.72,3.48,3.48,0,0,0,8,9.23a3.47,3.47,0,0,1-1.59,1,4.87,4.87,0,0,1-1.85.24,5.16,5.16,0,0,1-1.78-.43,3.75,3.75,0,0,1-1.36-1,5,5,0,0,1-1-1.58A5.68,5.68,0,0,1,0,5.68,4.82,4.82,0,0,1,.27,3.81a4.58,4.58,0,0,1,1-1.66A5.35,5.35,0,0,1,2.8,1.06,9,9,0,0,1,4.64.39a12,12,0,0,1,2-.31q1-.08,2-.06c.08.25.22.62.42,1.1s.45,1.06.75,1.7.66,1.33,1.06,2.09.85,1.54,1.35,2.34c.45-1,.87-1.91,1.24-2.83A14.26,14.26,0,0,0,14.17,2a2.43,2.43,0,0,0,0-1.14A2,2,0,0,0,13.74,0Z"/><path class="cls-1" d="M33.55,11.09a2.24,2.24,0,0,1-.34,1.6,4.71,4.71,0,0,1-1.35,1.36,8.46,8.46,0,0,1-2,1,9.38,9.38,0,0,1-2.34.49,8.55,8.55,0,0,1-2.37-.13,5.25,5.25,0,0,1-2.06-.9,4.58,4.58,0,0,1-1.42-1.8,6.37,6.37,0,0,1-.46-2.84v.06a14,14,0,0,1-.78,2.32,3.27,3.27,0,0,1-1.27,1.53,2.09,2.09,0,0,1-.75.28,2.37,2.37,0,0,1-.88,0,2.23,2.23,0,0,1-.84-.36,1.91,1.91,0,0,1-.64-.8,4.27,4.27,0,0,1-.38-1.58c-.05-.62-.08-1.27-.1-2S15.5,8,15.45,7.28a7,7,0,0,0-.4-2,17,17,0,0,0,2.08-.4,8.83,8.83,0,0,0,1.75-.64V8.54c0,.43,0,.85,0,1.26a9,9,0,0,0,.13,1.06,2.9,2.9,0,0,0,.22.73c.08.19.19.28.32.28a.65.65,0,0,0,.45-.25A2.3,2.3,0,0,0,20.4,11a8.39,8.39,0,0,0,.31-.86q.15-.49.27-1c0-.13.05-.26.08-.39a2.71,2.71,0,0,0,.09-.41A18.31,18.31,0,0,0,21,6.47a3.92,3.92,0,0,0-.32-1.15c.34,0,.71-.1,1.1-.17l1.17-.24c.39-.09.76-.19,1.12-.31a7.73,7.73,0,0,0,.88-.32,4,4,0,0,0-.19.75c-.06.34-.11.72-.16,1.15s-.08.89-.1,1.4,0,1,0,1.53a6.77,6.77,0,0,0,.49,2.79,4.51,4.51,0,0,0,1.19,1.67,3.18,3.18,0,0,0,1.49.72A2.84,2.84,0,0,0,29,14.23a1.58,1.58,0,0,0,.78-.5,1.05,1.05,0,0,0,.16-.9,3.2,3.2,0,0,0-.76-1.31,12.07,12.07,0,0,0-2-1.76,4.27,4.27,0,0,1-1-1,3.31,3.31,0,0,1-.53-1,2.88,2.88,0,0,1-.12-1,2.47,2.47,0,0,1,.28-1,2.35,2.35,0,0,1,.88-1A4.74,4.74,0,0,1,28,4.16,5,5,0,0,1,29.42,4a4.8,4.8,0,0,1,1.36.2,2.68,2.68,0,0,1,1,.59,1.37,1.37,0,0,1,.43,1,1.09,1.09,0,0,1-.39.92,1.85,1.85,0,0,1-1,.39,2,2,0,0,1-1.11-.21A1.66,1.66,0,0,1,28.93,6a1.14,1.14,0,0,0,.63-.35.49.49,0,0,0,.09-.43.79.79,0,0,0-.31-.38.93.93,0,0,0-.56-.17.92.92,0,0,0-.49.09A.74.74,0,0,0,28,5a.8.8,0,0,0-.14.36,1.39,1.39,0,0,0,0,.35,1.25,1.25,0,0,0,.49.71q.39.3.84.6l.54.34.68.44.76.51c.27.18.53.36.78.55a7.22,7.22,0,0,1,1.09,1A2.34,2.34,0,0,1,33.55,11.09Z"/><path class="cls-1" d="M34.06,4.28c.32-.06.67-.15,1-.26s.76-.24,1.13-.37a11,11,0,0,0,1-.45,5.07,5.07,0,0,0,.8-.5V4.28h1.72V5H38.05c0,1.1,0,2.17,0,3.19s0,2.09,0,3.18a5.22,5.22,0,0,0,.19,1.54c.12.37.33.53.62.47a.63.63,0,0,0,.4-.46,2.19,2.19,0,0,0,.05-.86,4.41,4.41,0,0,0-.26-1,2.63,2.63,0,0,0-.53-.89A1.46,1.46,0,0,1,39.68,10a1.2,1.2,0,0,1,.68.61,2.13,2.13,0,0,1,.21,1,2.55,2.55,0,0,1-.34,1.16,2.88,2.88,0,0,1-1,.94,3.1,3.1,0,0,1-1.63.39,3.44,3.44,0,0,1-1.4-.25,2.36,2.36,0,0,1-.94-.68,2.78,2.78,0,0,1-.53-1.06,5.32,5.32,0,0,1-.17-1.38c0-.91,0-1.7,0-2.37s0-1.26,0-1.77a7.77,7.77,0,0,0-.15-1.32A3.33,3.33,0,0,0,34.06,4.28Z"/><path class="cls-1" d="M40.9,13.9a6.92,6.92,0,0,0,.46-1.71,11.23,11.23,0,0,0,.1-1.82,9.11,9.11,0,0,0-.19-1.64,4.52,4.52,0,0,0-.37-1.16A10.9,10.9,0,0,0,42,7.51a10.79,10.79,0,0,0,1.16-.18A7.13,7.13,0,0,0,44.25,7a4.09,4.09,0,0,0,.91-.47A6.74,6.74,0,0,0,44.83,8a17.8,17.8,0,0,0-.16,2,18.5,18.5,0,0,0,.09,2.12,6.62,6.62,0,0,0,.4,1.77Zm0-9a1.19,1.19,0,0,1,.17-.63,1.8,1.8,0,0,1,.45-.51,2.34,2.34,0,0,1,.67-.34A2.76,2.76,0,0,1,43,3.32a2.61,2.61,0,0,1,1.51.47A1.84,1.84,0,0,1,45,4.3a1.28,1.28,0,0,1,.16.63,1.18,1.18,0,0,1-.16.61,1.68,1.68,0,0,1-.46.5,2.17,2.17,0,0,1-.68.34,2.68,2.68,0,0,1-1.65,0A1.92,1.92,0,0,1,41.54,6a1.64,1.64,0,0,1-.45-.5A1.1,1.1,0,0,1,40.92,4.93Z"/><path d="M17.25,17.91a.71.71,0,0,1-.8.8H16V17.12h.48a.82.82,0,0,1,.6.2A.75.75,0,0,1,17.25,17.91Zm-.12,0a1.14,1.14,0,0,0,0-.28.42.42,0,0,0-.11-.21.46.46,0,0,0-.21-.14,1.06,1.06,0,0,0-.33,0h-.36V18.6h.36a1,1,0,0,0,.33-.05.46.46,0,0,0,.21-.14.47.47,0,0,0,.11-.21A1.29,1.29,0,0,0,17.13,17.91Z"/><path d="M20.06,18.71H18.91V17.12H20v.12H19v.59H20v.11H19v.66h1Z"/><path d="M22.31,18.74a1.29,1.29,0,0,1-.29,0,.63.63,0,0,1-.2-.1.44.44,0,0,1-.12-.15.46.46,0,0,1-.05-.2h.11a.36.36,0,0,0,.07.18.57.57,0,0,0,.11.11.52.52,0,0,0,.16.06l.2,0a.58.58,0,0,0,.19,0,.35.35,0,0,0,.14-.06.47.47,0,0,0,.1-.1.34.34,0,0,0,0-.28.38.38,0,0,0-.09-.09L22.47,18l-.27-.07L22,17.87l-.16-.09a.34.34,0,0,1-.09-.12.33.33,0,0,1,0-.15.33.33,0,0,1,0-.17.45.45,0,0,1,.11-.13.56.56,0,0,1,.17-.09.85.85,0,0,1,.23,0,.78.78,0,0,1,.22,0,.75.75,0,0,1,.18.08.49.49,0,0,1,.12.13.55.55,0,0,1,.06.18h-.11a.61.61,0,0,0,0-.12l-.09-.1-.14-.06-.18,0a.62.62,0,0,0-.33.08.25.25,0,0,0-.11.21.2.2,0,0,0,0,.11.24.24,0,0,0,.06.09l.13.06a1,1,0,0,0,.2,0l.15,0,.14,0a.52.52,0,0,1,.13.06l.12.07a.47.47,0,0,1,.07.12.33.33,0,0,1,0,.15.41.41,0,0,1,0,.19.55.55,0,0,1-.3.24A.85.85,0,0,1,22.31,18.74Z"/><path d="M24.7,18.71h-.11V17.12h.11Z"/><path d="M27.15,18.74a.81.81,0,0,1-.31-.06.78.78,0,0,1-.24-.16,1,1,0,0,1-.15-.27.9.9,0,0,1-.06-.34.93.93,0,0,1,.06-.34.87.87,0,0,1,.15-.25.66.66,0,0,1,.24-.17.78.78,0,0,1,.31-.06.64.64,0,0,1,.24,0,.61.61,0,0,1,.2.09.67.67,0,0,1,.15.14.46.46,0,0,1,.08.19h-.13a.21.21,0,0,0-.05-.13.43.43,0,0,0-.12-.11.59.59,0,0,0-.16-.07.66.66,0,0,0-.21,0,1.09,1.09,0,0,0-.26,0,.66.66,0,0,0-.2.14.91.91,0,0,0-.13.22,1,1,0,0,0,0,.3,1,1,0,0,0,0,.31,1.16,1.16,0,0,0,.13.22.66.66,0,0,0,.2.14.75.75,0,0,0,.26.05.69.69,0,0,0,.59-.29v-.28H27.3v-.12h.56v.77h-.07l-.05-.21a.6.6,0,0,1-.12.11l-.14.08-.16,0Z"/><path d="M30.77,18.71h-.16l-1-1.45v1.45h-.11V17.12h.15l1,1.45V17.12h.12Z"/><path d="M33.63,18.71H32.48V17.12h1.11v.12h-1v.59h.94v.11h-.94v.66h1Z"/><path d="M36.57,18.71h-.13l-.16-.42a.37.37,0,0,0-.05-.11.36.36,0,0,0-.07-.1.24.24,0,0,0-.08-.06A.23.23,0,0,0,36,18h-.55v.71h-.12V17.12H36l.19,0a.36.36,0,0,1,.17.07.32.32,0,0,1,.11.12.46.46,0,0,1,.05.21.61.61,0,0,1,0,.15.52.52,0,0,1-.06.13l-.1.09a.52.52,0,0,1-.15.06l.08.06,0,.07,0,.08a.3.3,0,0,1,0,.1Zm-1.16-.83H36l.2,0a.3.3,0,0,0,.14-.06.2.2,0,0,0,.08-.1.35.35,0,0,0,0-.16.26.26,0,0,0-.11-.23.53.53,0,0,0-.31-.07h-.58Z"/></svg>