<svg id="Layer_1" data-name="Layer 1" xmlns="http://www.w3.org/2000/svg" viewBox="0 0 45.16 32.42"><defs><style>.cls-1{fill:#0c241f;}.cls-2{fill:#ddd3b9;}</style></defs><path class="cls-1" d="M17.07,12.91a2.57,2.57,0,0,0-.49.31,2.45,2.45,0,0,0-.42.43,4.18,4.18,0,0,0-.41.6c-.14.23-.29.51-.46.85-.45.85-.94,1.84-1.47,3s-1,2.3-1.52,3.46c0,.46,0,1,0,1.53s.06,1.1.1,1.63.09,1,.16,1.43a4.59,4.59,0,0,0,.21.91,12.33,12.33,0,0,0-4.69,0,3.49,3.49,0,0,0,.29-.94,11.34,11.34,0,0,0,.18-1.3q.06-.72.09-1.5c0-.52,0-1,0-1.54a15.21,15.21,0,0,0-.93-2.11c-.4-.77-.81-1.52-1.24-2.23S5.7,16.07,5.29,15.5s-.72-.68-1-.59-.5.3-.59.84a5.44,5.44,0,0,0,0,1.66,6.48,6.48,0,0,0,.51,1.66,6.36,6.36,0,0,0,.92,1.48,5.15,5.15,0,0,0,1.25,1.08A3.48,3.48,0,0,0,8,22.14a3.47,3.47,0,0,1-1.59,1.05,4.87,4.87,0,0,1-1.85.24A5.16,5.16,0,0,1,2.73,23a3.75,3.75,0,0,1-1.36-1,5,5,0,0,1-1-1.58A5.68,5.68,0,0,1,0,18.59a4.82,4.82,0,0,1,.26-1.87,4.58,4.58,0,0,1,1-1.66A5.35,5.35,0,0,1,2.8,14a9,9,0,0,1,1.84-.67,12,12,0,0,1,2-.31q1-.08,2-.06c.08.25.22.62.42,1.1s.45,1.06.75,1.7.66,1.33,1.06,2.09.85,1.54,1.35,2.34c.45-1,.87-1.91,1.24-2.83a14.26,14.26,0,0,0,.77-2.45,2.43,2.43,0,0,0,0-1.14,2,2,0,0,0-.43-.83Z"/><path class="cls-1" d="M33.55,24a2.24,2.24,0,0,1-.34,1.6A4.71,4.71,0,0,1,31.86,27a8.46,8.46,0,0,1-2,1,9.38,9.38,0,0,1-2.34.49,8.55,8.55,0,0,1-2.37-.13,5.25,5.25,0,0,1-2.06-.9,4.65,4.65,0,0,1-1.42-1.8,6.37,6.37,0,0,1-.46-2.84v.06a14,14,0,0,1-.78,2.32,3.27,3.27,0,0,1-1.27,1.53,2.09,2.09,0,0,1-.75.28,2.37,2.37,0,0,1-.88,0,2.23,2.23,0,0,1-.84-.36,1.88,1.88,0,0,1-.64-.81,4.16,4.16,0,0,1-.38-1.57c-.05-.62-.08-1.27-.1-1.95s-.05-1.38-.1-2.08a7,7,0,0,0-.4-2,17,17,0,0,0,2.08-.4,8.83,8.83,0,0,0,1.75-.64v4.26c0,.43,0,.85,0,1.26a9.31,9.31,0,0,0,.13,1.06,2.9,2.9,0,0,0,.22.73c.08.19.19.28.32.28a.65.65,0,0,0,.45-.25,2.3,2.3,0,0,0,.36-.59,8.39,8.39,0,0,0,.31-.86q.15-.49.27-1c0-.13.05-.26.08-.39a2.71,2.71,0,0,0,.09-.41A18,18,0,0,0,21,19.38a3.92,3.92,0,0,0-.32-1.15c.34,0,.71-.1,1.1-.17s.78-.15,1.17-.24.76-.19,1.12-.31a7.73,7.73,0,0,0,.88-.32,4,4,0,0,0-.19.75c-.06.34-.11.72-.16,1.15s-.08.89-.1,1.4,0,1,0,1.53a6.77,6.77,0,0,0,.49,2.79,4.51,4.51,0,0,0,1.19,1.67,3.18,3.18,0,0,0,1.49.72A2.84,2.84,0,0,0,29,27.14a1.58,1.58,0,0,0,.78-.5,1.05,1.05,0,0,0,.16-.9,3.2,3.2,0,0,0-.76-1.31,12.07,12.07,0,0,0-2-1.76,4.27,4.27,0,0,1-1-1,3.31,3.31,0,0,1-.53-1,2.88,2.88,0,0,1-.12-1,2.47,2.47,0,0,1,.28-1,2.35,2.35,0,0,1,.88-1A4.46,4.46,0,0,1,28,17.07a5,5,0,0,1,1.44-.18,4.8,4.8,0,0,1,1.36.2,2.68,2.68,0,0,1,1,.59,1.37,1.37,0,0,1,.43,1,1.09,1.09,0,0,1-.39.92,1.85,1.85,0,0,1-1,.39,2,2,0,0,1-1.11-.21,1.66,1.66,0,0,1-.84-.87,1.14,1.14,0,0,0,.63-.35.49.49,0,0,0,.09-.43.79.79,0,0,0-.31-.38.93.93,0,0,0-.56-.17.92.92,0,0,0-.49.09.79.79,0,0,0-.3.27.89.89,0,0,0-.14.37,1.39,1.39,0,0,0,0,.35,1.25,1.25,0,0,0,.49.71q.39.3.84.6l.54.34.68.44.76.51c.27.18.53.36.78.55a7.22,7.22,0,0,1,1.09,1A2.34,2.34,0,0,1,33.55,24Z"/><path class="cls-1" d="M34.06,17.19c.32-.06.67-.15,1-.26s.76-.24,1.13-.37a11,11,0,0,0,1-.45,5.07,5.07,0,0,0,.8-.5v1.58h1.72v.67H38.05c0,1.1,0,2.17,0,3.19s0,2.09,0,3.18a5.22,5.22,0,0,0,.19,1.54c.12.37.33.53.62.47a.63.63,0,0,0,.4-.46,2.19,2.19,0,0,0,.05-.86,4.41,4.41,0,0,0-.26-1,2.63,2.63,0,0,0-.53-.89,1.46,1.46,0,0,1,1.13-.17,1.2,1.2,0,0,1,.68.61,2.13,2.13,0,0,1,.21,1,2.55,2.55,0,0,1-.34,1.16,2.88,2.88,0,0,1-1,.94,3.1,3.1,0,0,1-1.63.39,3.44,3.44,0,0,1-1.4-.25,2.36,2.36,0,0,1-.94-.68A2.78,2.78,0,0,1,34.77,25a5.32,5.32,0,0,1-.17-1.38c0-.91,0-1.7,0-2.37s0-1.26,0-1.77a7.77,7.77,0,0,0-.15-1.32A3.33,3.33,0,0,0,34.06,17.19Z"/><path class="cls-1" d="M40.9,26.81a6.92,6.92,0,0,0,.46-1.71,11.23,11.23,0,0,0,.1-1.82,9.11,9.11,0,0,0-.19-1.64,4.52,4.52,0,0,0-.37-1.16A10.9,10.9,0,0,0,42,20.42a10.79,10.79,0,0,0,1.16-.18,7.13,7.13,0,0,0,1.08-.31,4.09,4.09,0,0,0,.91-.47,6.59,6.59,0,0,0-.33,1.44,17.8,17.8,0,0,0-.16,2A18.59,18.59,0,0,0,44.76,25a6.62,6.62,0,0,0,.4,1.77Zm0-9a1.19,1.19,0,0,1,.17-.63,1.8,1.8,0,0,1,.45-.51,2.34,2.34,0,0,1,.67-.34,2.76,2.76,0,0,1,.82-.13,2.61,2.61,0,0,1,1.51.47,1.84,1.84,0,0,1,.46.51,1.28,1.28,0,0,1,.16.63,1.18,1.18,0,0,1-.16.61,1.68,1.68,0,0,1-.46.5,2.17,2.17,0,0,1-.68.34,2.68,2.68,0,0,1-1.65,0,1.92,1.92,0,0,1-.67-.34,1.64,1.64,0,0,1-.45-.5A1.1,1.1,0,0,1,40.92,17.84Z"/><path d="M12.94,30.82a.71.71,0,0,1-.8.8h-.48V30h.48a.82.82,0,0,1,.6.2A.75.75,0,0,1,12.94,30.82Zm-.12,0a1.14,1.14,0,0,0,0-.28.42.42,0,0,0-.11-.21.46.46,0,0,0-.21-.14,1.06,1.06,0,0,0-.33,0h-.37v1.36h.37a1,1,0,0,0,.33-.05.52.52,0,0,0,.21-.14.47.47,0,0,0,.11-.21A1.29,1.29,0,0,0,12.82,30.82Z"/><path d="M15.75,31.62H14.6V30h1.11v.12h-1v.59h.93v.11h-.93v.66h1Z"/><path d="M18,31.65a1.23,1.23,0,0,1-.29,0,.63.63,0,0,1-.2-.1.44.44,0,0,1-.12-.15.46.46,0,0,1-.05-.2h.11a.36.36,0,0,0,.07.18l.11.11a.44.44,0,0,0,.16.06l.2,0a.58.58,0,0,0,.19,0,.35.35,0,0,0,.14-.06.47.47,0,0,0,.1-.1.34.34,0,0,0,0-.28.38.38,0,0,0-.09-.09.61.61,0,0,0-.18-.07l-.26-.07-.23-.07a.53.53,0,0,1-.15-.08.34.34,0,0,1-.09-.12.33.33,0,0,1,0-.15.33.33,0,0,1,0-.17.45.45,0,0,1,.11-.13.56.56,0,0,1,.17-.09.8.8,0,0,1,.23,0,.78.78,0,0,1,.22,0,.75.75,0,0,1,.18.08.49.49,0,0,1,.12.13.55.55,0,0,1,.06.18h-.11a.61.61,0,0,0-.05-.12l-.09-.1-.14-.06-.18,0a.59.59,0,0,0-.33.08.25.25,0,0,0-.11.21.36.36,0,0,0,0,.11l.07.09.13.06a.83.83,0,0,0,.2,0l.14,0,.15,0a.52.52,0,0,1,.13.06.3.3,0,0,1,.11.07.32.32,0,0,1,.08.12.33.33,0,0,1,0,.15.58.58,0,0,1,0,.19.55.55,0,0,1-.3.24A.85.85,0,0,1,18,31.65Z"/><path d="M20.39,31.62h-.11V30h.11Z"/><path d="M22.84,31.65a.81.81,0,0,1-.31-.06.78.78,0,0,1-.24-.16,1,1,0,0,1-.15-.27.9.9,0,0,1-.06-.34.93.93,0,0,1,.06-.34.87.87,0,0,1,.15-.25.66.66,0,0,1,.24-.17.78.78,0,0,1,.31-.06.64.64,0,0,1,.24,0,.61.61,0,0,1,.2.09.67.67,0,0,1,.15.14.64.64,0,0,1,.08.19h-.13a.21.21,0,0,0-.05-.13.43.43,0,0,0-.12-.11.59.59,0,0,0-.16-.07.71.71,0,0,0-.21,0,1.09,1.09,0,0,0-.26,0,.66.66,0,0,0-.2.14.67.67,0,0,0-.13.22,1,1,0,0,0,0,.3,1,1,0,0,0,0,.31.8.8,0,0,0,.13.22.66.66,0,0,0,.2.14.75.75,0,0,0,.26.05.69.69,0,0,0,.59-.29V31H23v-.12h.56v.77h-.07l-.05-.21a.6.6,0,0,1-.12.11l-.14.08-.16,0Z"/><path d="M26.45,31.62H26.3l-1-1.45v1.45h-.12V30h.16l1,1.45V30h.11Z"/><path d="M29.32,31.62H28.17V30h1.11v.12h-1v.59h.93v.11h-.93v.66h1Z"/><path d="M32.26,31.62h-.13L32,31.2a1.17,1.17,0,0,0,0-.11.36.36,0,0,0-.07-.1.24.24,0,0,0-.08-.06.25.25,0,0,0-.12,0H31.1v.71H31V30h.71l.2,0a.36.36,0,0,1,.17.07.43.43,0,0,1,.11.12.46.46,0,0,1,0,.21.61.61,0,0,1,0,.15l-.06.13-.1.09a.67.67,0,0,1-.15.06l.08.06L32,31l0,.08a1,1,0,0,1,0,.1Zm-1.16-.83h.55l.2,0a.3.3,0,0,0,.14-.06.27.27,0,0,0,.08-.1.35.35,0,0,0,0-.16.26.26,0,0,0-.11-.23.53.53,0,0,0-.31-.07H31.1Z"/><path class="cls-1" d="M28.78,7c0,.63-.7,1.15-.88,1.72s.06,1.43-.3,1.92-1.24.51-1.74.88-.77,1.19-1.36,1.38-1.28-.32-1.92-.32-1.34.5-1.92.32-.87-1-1.36-1.38-1.37-.38-1.74-.88-.1-1.32-.29-1.92S16.38,7.6,16.38,7s.7-1.16.89-1.73-.07-1.42.29-1.92,1.24-.51,1.74-.87.77-1.19,1.36-1.38,1.29.31,1.92.31,1.34-.5,1.92-.31.87,1,1.37,1.38,1.37.37,1.73.87.1,1.33.3,1.92S28.78,6.33,28.78,7Z"/><path class="cls-2" d="M25.17,4.78a1,1,0,0,0-.17.1L24.86,5l-.13.2a2.37,2.37,0,0,0-.15.28c-.15.29-.31.62-.49,1s-.35.76-.51,1.15c0,.15,0,.32,0,.51l0,.54c0,.18,0,.33.05.48a1.51,1.51,0,0,0,.08.3,4.14,4.14,0,0,0-1.57,0,1,1,0,0,0,.1-.31,2.75,2.75,0,0,0,.06-.44c0-.15,0-.32,0-.49s0-.35,0-.52a5.62,5.62,0,0,0-.31-.7c-.13-.26-.27-.5-.41-.74s-.29-.45-.42-.64-.24-.23-.32-.2a.32.32,0,0,0-.2.28,2,2,0,0,0,0,.55,1.84,1.84,0,0,0,.17.55,2.07,2.07,0,0,0,.3.5,1.82,1.82,0,0,0,.42.36,1.23,1.23,0,0,0,.51.17,1.4,1.4,0,0,1-.53.35,1.65,1.65,0,0,1-.62.07,1.7,1.7,0,0,1-.59-.14,1.31,1.31,0,0,1-.46-.32,1.76,1.76,0,0,1-.31-.53,1.87,1.87,0,0,1-.14-.62A1.67,1.67,0,0,1,19.58,6a1.53,1.53,0,0,1,.34-.55,1.64,1.64,0,0,1,.5-.36A2.79,2.79,0,0,1,21,4.91a3.79,3.79,0,0,1,.66-.11c.23,0,.45,0,.65,0l.14.37c.07.16.15.35.25.56s.22.45.36.7.28.51.44.78c.16-.32.29-.64.42-.94a4.35,4.35,0,0,0,.25-.82.81.81,0,0,0,0-.38.58.58,0,0,0-.14-.27Z"/></svg>