<svg id="Layer_1" data-name="Layer 1" xmlns="http://www.w3.org/2000/svg" viewBox="0 0 98.81 16.89" width="150" heigth="150"><defs><style>.cls-1{fill:#0c241f;}</style></defs><path class="cls-1" d="M15.43,2.19a2,2,0,0,0-.39.25,2.18,2.18,0,0,0-.34.34,5,5,0,0,0-.33.48c-.11.19-.23.41-.37.69-.35.68-.75,1.48-1.18,2.4S12,8.2,11.6,9.13c0,.37,0,.78.05,1.23s0,.89.07,1.31.08.81.13,1.15a3.44,3.44,0,0,0,.17.73,10,10,0,0,0-3.77,0,3.69,3.69,0,0,0,.24-.75,9.92,9.92,0,0,0,.14-1.05c0-.38,0-.78.07-1.2s0-.83,0-1.24A13.09,13.09,0,0,0,8,7.61C7.65,7,7.32,6.39,7,5.82s-.69-1.1-1-1.55-.58-.54-.77-.48a.78.78,0,0,0-.47.68,4.24,4.24,0,0,0,0,1.33,5.17,5.17,0,0,0,.41,1.34,4.9,4.9,0,0,0,.74,1.18,3.8,3.8,0,0,0,1,.88,3,3,0,0,0,1.23.41,3,3,0,0,1-1.28.84,4,4,0,0,1-1.49.19,4.1,4.1,0,0,1-1.43-.34,3,3,0,0,1-1.1-.79A4.4,4.4,0,0,1,2,8.24a4.52,4.52,0,0,1-.32-1.49,3.85,3.85,0,0,1,.21-1.5,3.56,3.56,0,0,1,.82-1.33A4.19,4.19,0,0,1,4,3,6.81,6.81,0,0,1,5.44,2.5,9.36,9.36,0,0,1,7,2.25c.54,0,1.07-.06,1.57,0,.06.2.18.5.34.89s.36.85.6,1.36.53,1.07.85,1.68S11.09,7.37,11.49,8c.36-.78.7-1.54,1-2.28a13.08,13.08,0,0,0,.62-2,2,2,0,0,0,0-.92,1.67,1.67,0,0,0-.35-.66Z"/><path class="cls-1" d="M28.68,11.1a1.76,1.76,0,0,1-.27,1.29,3.77,3.77,0,0,1-1.09,1.09,6.54,6.54,0,0,1-1.61.8,7.33,7.33,0,0,1-1.89.4,6.36,6.36,0,0,1-1.9-.11,4,4,0,0,1-1.66-.72,3.69,3.69,0,0,1-1.14-1.45,5,5,0,0,1-.37-2.28v.05A11.26,11.26,0,0,1,18.12,12a2.61,2.61,0,0,1-1,1.24,1.76,1.76,0,0,1-.61.22,1.86,1.86,0,0,1-1.38-.3,1.58,1.58,0,0,1-.51-.64,3.53,3.53,0,0,1-.31-1.27c0-.5-.06-1-.08-1.57s0-1.11-.07-1.67a5.76,5.76,0,0,0-.33-1.58,12.8,12.8,0,0,0,1.68-.32,7.2,7.2,0,0,0,1.41-.51V9.06c0,.34,0,.68,0,1a6.38,6.38,0,0,0,.1.86,2.83,2.83,0,0,0,.17.59c.07.14.16.22.26.22a.51.51,0,0,0,.36-.2,1.79,1.79,0,0,0,.29-.48,4.57,4.57,0,0,0,.25-.69c.08-.26.15-.53.22-.82,0-.1,0-.21.07-.31s.05-.22.07-.33a14.33,14.33,0,0,0-.16-1.51,3.45,3.45,0,0,0-.25-.93c.27,0,.57-.07.88-.13s.63-.12.94-.2.62-.15.9-.24.52-.18.71-.26a2.59,2.59,0,0,0-.15.6c-.05.27-.09.58-.13.92s-.06.72-.08,1.13,0,.81,0,1.23a5.35,5.35,0,0,0,.4,2.24,3.71,3.71,0,0,0,1,1.35,2.58,2.58,0,0,0,1.2.58,2.38,2.38,0,0,0,1.11,0,1.24,1.24,0,0,0,.62-.41.83.83,0,0,0,.13-.72,2.64,2.64,0,0,0-.61-1.06A9.87,9.87,0,0,0,23.54,10a3.8,3.8,0,0,1-.78-.77,2.86,2.86,0,0,1-.43-.83,2.46,2.46,0,0,1-.09-.84,1.9,1.9,0,0,1,.22-.78,2,2,0,0,1,.71-.8,3.73,3.73,0,0,1,1-.48,4.17,4.17,0,0,1,1.17-.14,3.72,3.72,0,0,1,1.09.16,2.17,2.17,0,0,1,.83.47,1.09,1.09,0,0,1,.34.79.87.87,0,0,1-.31.74,1.5,1.5,0,0,1-.78.31,1.69,1.69,0,0,1-.9-.16A1.43,1.43,0,0,1,25,7a1,1,0,0,0,.51-.29.36.36,0,0,0,.07-.34.64.64,0,0,0-.24-.31.78.78,0,0,0-.46-.13.68.68,0,0,0-.64.29.73.73,0,0,0-.11.29,1.36,1.36,0,0,0,0,.28,1.12,1.12,0,0,0,.4.58c.21.16.43.32.67.48l.44.27.55.35.61.41.62.44a5.92,5.92,0,0,1,.88.82A1.82,1.82,0,0,1,28.68,11.1Z"/><path class="cls-1" d="M29.09,5.63a8.07,8.07,0,0,0,.85-.21c.31-.09.61-.19.91-.3a9,9,0,0,0,.83-.36,4,4,0,0,0,.64-.4V5.63H33.7v.53H32.3c0,.89,0,1.75,0,2.57s0,1.68,0,2.56a4,4,0,0,0,.15,1.23c.1.3.27.43.5.39a.54.54,0,0,0,.32-.38,1.68,1.68,0,0,0,0-.68,3.23,3.23,0,0,0-.21-.81,2.19,2.19,0,0,0-.42-.71,1.13,1.13,0,0,1,.9-.13.93.93,0,0,1,.55.48,1.73,1.73,0,0,1,.17.84,1.84,1.84,0,0,1-.28.93,2.24,2.24,0,0,1-.77.76,2.47,2.47,0,0,1-1.31.31,2.88,2.88,0,0,1-1.12-.2,1.94,1.94,0,0,1-.76-.55,2.26,2.26,0,0,1-.42-.85,4.19,4.19,0,0,1-.14-1.1c0-.74,0-1.37,0-1.91s0-1,0-1.43a7.31,7.31,0,0,0-.13-1.06A2.41,2.41,0,0,0,29.09,5.63Z"/><path class="cls-1" d="M34.59,13.36A4.93,4.93,0,0,0,35,12,8.09,8.09,0,0,0,35,10.53a6.85,6.85,0,0,0-.15-1.33,3.38,3.38,0,0,0-.3-.93c.29,0,.59,0,.9,0s.62-.08.93-.14a6.22,6.22,0,0,0,.87-.25A3.34,3.34,0,0,0,38,7.45a6.08,6.08,0,0,0-.27,1.16,14.53,14.53,0,0,0,0,3.33A5.14,5.14,0,0,0,38,13.36Zm0-7.21a1.14,1.14,0,0,1,.13-.51,1.27,1.27,0,0,1,.37-.4A1.72,1.72,0,0,1,35.65,5,2.26,2.26,0,0,1,37,5a2,2,0,0,1,.54.28,1.27,1.27,0,0,1,.37.4,1,1,0,0,1,.13.51.92.92,0,0,1-.13.49,1.27,1.27,0,0,1-.37.4,2,2,0,0,1-.54.28,2.26,2.26,0,0,1-1.33,0A1.72,1.72,0,0,1,35.11,7a1.27,1.27,0,0,1-.37-.4A1,1,0,0,1,34.61,6.15Z"/><rect class="cls-1" x="45.16" width="0.55" height="16.89" rx="0.25"/><path d="M55.86,8.68a1.53,1.53,0,0,1-1.72,1.73h-1V7h1a1.79,1.79,0,0,1,1.29.41A1.69,1.69,0,0,1,55.86,8.68Zm-.27,0a2.61,2.61,0,0,0-.06-.59,1.08,1.08,0,0,0-.24-.45.94.94,0,0,0-.45-.28,2,2,0,0,0-.7-.1h-.78v2.9h.78a2,2,0,0,0,.7-.1,1,1,0,0,0,.45-.29,1.05,1.05,0,0,0,.23-.46A2.43,2.43,0,0,0,55.59,8.68Z"/><path d="M61.84,10.41H59.39V7h2.37v.25H59.64V8.52h2v.24h-2v1.4h2.2Z"/><path d="M66.64,10.47A2.77,2.77,0,0,1,66,10.4a1.33,1.33,0,0,1-.43-.21,1.09,1.09,0,0,1-.27-.33,1.13,1.13,0,0,1-.1-.43h.24a.94.94,0,0,0,.14.38.75.75,0,0,0,.25.25,1,1,0,0,0,.35.12,1.7,1.7,0,0,0,.4,0,1.64,1.64,0,0,0,.41-.05.89.89,0,0,0,.31-.14.6.6,0,0,0,.2-.22.65.65,0,0,0,.07-.29.58.58,0,0,0-.06-.28.57.57,0,0,0-.2-.21A1.66,1.66,0,0,0,67,8.88c-.15-.05-.34-.09-.56-.14a3.14,3.14,0,0,1-.48-.14,1.44,1.44,0,0,1-.33-.19.58.58,0,0,1-.19-.25.63.63,0,0,1-.07-.32.74.74,0,0,1,.09-.36.77.77,0,0,1,.23-.28A1.16,1.16,0,0,1,66,7,1.51,1.51,0,0,1,66.51,7,1.86,1.86,0,0,1,67,7a1.21,1.21,0,0,1,.38.18.87.87,0,0,1,.26.28.86.86,0,0,1,.13.37h-.24a.85.85,0,0,0-.11-.26.76.76,0,0,0-.2-.2.86.86,0,0,0-.29-.13,1.19,1.19,0,0,0-.39,0,1.14,1.14,0,0,0-.69.17.53.53,0,0,0-.23.45.61.61,0,0,0,0,.24.6.6,0,0,0,.15.18,1.13,1.13,0,0,0,.27.13,2.87,2.87,0,0,0,.43.12l.3.06.31.08a1.48,1.48,0,0,1,.29.12.81.81,0,0,1,.24.17.79.79,0,0,1,.16.23.81.81,0,0,1,.06.33.9.9,0,0,1-.09.4,1,1,0,0,1-.26.31,1.22,1.22,0,0,1-.39.21A1.79,1.79,0,0,1,66.64,10.47Z"/><path d="M71.75,10.41H71.5V7h.25Z"/><path d="M77,10.47a1.53,1.53,0,0,1-.66-.13A1.28,1.28,0,0,1,75.8,10a1.63,1.63,0,0,1-.33-.56,2,2,0,0,1-.11-.72A2.11,2.11,0,0,1,75.47,8a1.79,1.79,0,0,1,.33-.55,1.41,1.41,0,0,1,.51-.35A1.88,1.88,0,0,1,77.48,7a1.42,1.42,0,0,1,.43.2,1.18,1.18,0,0,1,.32.31,1.31,1.31,0,0,1,.17.4h-.27A.7.7,0,0,0,78,7.65a.79.79,0,0,0-.25-.23,1.25,1.25,0,0,0-.35-.16A1.51,1.51,0,0,0,77,7.2a1.63,1.63,0,0,0-.55.09,1.13,1.13,0,0,0-.42.29,1.31,1.31,0,0,0-.28.47,1.85,1.85,0,0,0-.1.65,1.79,1.79,0,0,0,.1.64,1.27,1.27,0,0,0,.28.48,1.15,1.15,0,0,0,.42.3,1.42,1.42,0,0,0,.55.1,1.51,1.51,0,0,0,.73-.16,1.54,1.54,0,0,0,.53-.45V9h-.94V8.75h1.19v1.66h-.15l-.1-.46a1.16,1.16,0,0,1-.26.24,1.3,1.3,0,0,1-.31.16,1.59,1.59,0,0,1-.33.09A2.07,2.07,0,0,1,77,10.47Z"/><path d="M84.68,10.41h-.33l-2.07-3.1v3.1H82V7h.34l2.05,3.1V7h.25Z"/><path d="M90.78,10.41H88.33V7H90.7v.25H88.58V8.52h2v.24h-2v1.4h2.2Z"/><path d="M97.06,10.41h-.28l-.33-.91-.11-.24a.75.75,0,0,0-.15-.2A.62.62,0,0,0,96,8.92a.61.61,0,0,0-.24,0H94.58v1.53h-.25V7h1.53a2.71,2.71,0,0,1,.41,0,1,1,0,0,1,.36.14.81.81,0,0,1,.25.27,1,1,0,0,1,.09.45,1.12,1.12,0,0,1,0,.32.71.71,0,0,1-.13.26.67.67,0,0,1-.21.2.77.77,0,0,1-.31.12l.16.14a1.3,1.3,0,0,1,.1.15.89.89,0,0,1,.08.17,2.2,2.2,0,0,1,.09.21ZM94.58,8.63h1.18a2.63,2.63,0,0,0,.43,0,.71.71,0,0,0,.29-.12.55.55,0,0,0,.18-.22,1.11,1.11,0,0,0,0-.34.56.56,0,0,0-.22-.5,1.19,1.19,0,0,0-.66-.15H94.58Z"/></svg>